# xmcd CD database file
#
# Track frame offsets:
#	150
#	31987
#	47962
#	70275
#	89025
#	127425
#	145275
#	175350
#	214875
#	238987
#
# Disc length: 3474 seconds
#
# Revision: 2
# Processed by: cddbd v1.5PL3 Copyright (c) Steve Scherf et al.
# Submitted via: CDex 1.51
#
DISCID=a80d900a
DTITLE=Tony Z - Get Down With The Blues
DYEAR=1995
DGENRE=Blues
TTITLE0=Get Down with the Blues
TTITLE1=Something Funky about Your Love
TTITLE2=Too Fine to be Mine
TTITLE3=I've got a New Love
TTITLE4=Paradise Memorial Gardens
TTITLE5=Roger Pace
TTITLE6=The Blues that was Waiting for Me
TTITLE7=Tone Cool
TTITLE8=Who are You Thinking of?
TTITLE9=Dan't Fuss and Fight
EXTD=YEAR: 1995
EXTT0=
EXTT1=
EXTT2=
EXTT3=
EXTT4=
EXTT5=
EXTT6=
EXTT7=
EXTT8=
EXTT9=
PLAYORDER=
